<svg viewBox="0 0 512 512" fill="none" xmlns="http://www.w3.org/2000/svg">
<path
    d="M370.508 445H155.948C151.118 445 146.598 442.84 143.558 439.08C140.518 435.32 139.348 430.45 140.358 425.72L140.488 425.24L143.118 416.99H153.618L150.098 428.01C149.798 429.71 150.238 431.44 151.328 432.79C152.458 434.19 154.148 435 155.948 435H370.508C373.298 435 375.738 433.02 376.328 430.3L388.988 371.15C389.368 369.39 388.938 367.58 387.808 366.18C386.668 364.77 384.978 363.96 383.168 363.96H370.498L372.608 353.96H383.178C388.028 353.96 392.548 356.12 395.598 359.9C398.638 363.66 399.788 368.53 398.768 373.25L386.108 432.4C384.538 439.7 377.988 445.01 370.518 445.01L370.508 445ZM270.958 314H260.618L306.058 114.12C306.678 111.18 305.878 107.33 304.188 105.25C303.178 104 302.318 104 301.988 104H286.528L288.428 94H301.988C305.818 94 309.358 95.76 311.948 98.95C315.518 103.35 317.068 110.3 315.818 116.26L270.958 314Z"
    fill="url(#paint0_radial_801_23)"
  />
<path
    d="M340.108 407.9H123.078C116.038 407.9 110.778 401.41 112.248 394.52L180.308 74.77C181.398 69.65 185.918 66 191.138 66H269.008C276.048 66 281.308 72.49 279.858 79.38L230.308 312.54C228.838 319.43 234.098 325.92 241.158 325.92H352.928C359.968 325.92 365.248 332.41 363.758 339.3L350.958 399.13C349.868 404.23 345.348 407.88 340.128 407.88L340.108 407.9Z"
    fill="url(#paint1_linear_801_23)"
    stroke="url(#paint2_radial_801_23)"
    stroke-width="10"
    stroke-miterlimit="10"
  />
<defs>
<radialGradient
      id="paint0_radial_801_23"
      cx="0"
      cy="0"
      r="1"
      gradientUnits="userSpaceOnUse"
      gradientTransform="translate(377.5 172) rotate(103.132) scale(376.341 317.009)"
    >
<stop stop-color="#0080FB" />
<stop offset="1" stop-color="#1D2088" />
</radialGradient>
<linearGradient
      id="paint1_linear_801_23"
      x1="299.018"
      y1="78.93"
      x2="204.508"
      y2="524.94"
      gradientUnits="userSpaceOnUse"
    >
<stop stop-color="#0080FB" />
<stop offset="1" stop-color="#153CA9" />
</linearGradient>
<radialGradient
      id="paint2_radial_801_23"
      cx="0"
      cy="0"
      r="1"
      gradientUnits="userSpaceOnUse"
      gradientTransform="translate(317.366 96.633) rotate(109.03) scale(442.22 475.66)"
    >
<stop stop-color="#0080FB" />
<stop offset="1" stop-color="#1D2088" />
</radialGradient>
</defs>
</svg>
