<svg width="600" height="600" viewBox="0 0 600 600" fill="none" xmlns="http://www.w3.org/2000/svg">
<path d="M158.5 425.5H147V485.2H152.8H158.5H178.3V475H158.5V425.5Z" fill="black"/>
<path d="M223.7 425.5H212.2V485.2H223.7V425.5Z" fill="black"/>
<path d="M388.2 425.5H376.7V485.2H388.2V425.5Z" fill="black"/>
<path d="M447.6 425.5H441.9H422.1V435.7H441.9V485.2H453.4V425.5H447.6Z" fill="black"/>
<path d="M332.9 425.5V485.2H321.4V445.5L302 479.8H298.1L278.6 445.5V485.2H267.1V425.5H278.6L300 465L321.4 425.5H332.9Z" fill="black"/>
<path d="M352.356 154C352.356 153.7 352.356 153.3 352.356 153C352.356 152.9 352.356 152.8 352.356 152.7C352.356 152.3 352.256 152 352.156 151.6C352.156 151.5 352.056 151.3 352.056 151.2C352.056 151.1 352.056 151 351.956 151C351.856 150.8 351.756 150.5 351.656 150.3L338.556 121C338.656 121.2 338.756 121.5 338.856 121.7C338.856 121.8 338.856 121.9 338.956 121.9C338.956 122.1 339.056 122.2 339.056 122.4C339.156 122.7 339.156 123.1 339.256 123.5C339.256 123.6 339.256 123.7 339.256 123.8C339.256 124.1 339.256 124.5 339.256 124.8V124.9C339.256 125.3 339.156 125.7 339.156 126C339.156 126.1 339.156 126.2 339.056 126.3C338.956 126.7 338.856 127.1 338.756 127.5L296.556 256.5C296.456 256.8 296.356 257.1 296.356 257.3C296.356 257.4 296.356 257.4 296.356 257.5C296.356 257.8 296.256 258 296.256 258.3V258.4C296.256 258.6 296.256 258.9 296.256 259.1C296.256 259.2 296.256 259.2 296.256 259.3C296.256 259.6 296.356 259.8 296.356 260C296.356 260 296.356 260 296.356 260.1C296.456 260.4 296.556 260.7 296.656 261L309.756 290.3C309.656 290 309.556 289.7 309.456 289.4V289.3C309.356 289.1 309.356 288.8 309.356 288.6C309.356 288.5 309.356 288.5 309.356 288.4C309.356 288.2 309.356 287.9 309.356 287.7V287.6C309.356 287.3 309.356 287.1 309.456 286.8C309.456 286.7 309.456 286.7 309.456 286.6C309.556 286.3 309.556 286.1 309.656 285.8L351.856 156.8C351.956 156.4 352.056 156 352.156 155.6C352.156 155.5 352.156 155.4 352.256 155.3C352.356 154.9 352.356 154.5 352.356 154.2C352.356 154.1 352.356 154.1 352.356 154Z" fill="url(#paint0_linear_55_211)"/>
<path d="M376.456 268.7L389.556 298C389.556 298 389.981 299.478 390 300.45C390.019 301.416 389.656 302.9 389.656 302.9L376.756 339.5L363.656 310.2L376.556 273.6C376.656 273.3 376.656 273 376.756 272.7V272.5C376.756 272.2 376.856 271.9 376.856 271.6V271.5V270.7V270.5V270.5C376.856 270.2 376.856 270 376.756 269.7V269.6L376.456 268.7Z" fill="url(#paint1_linear_55_211)"/>
<path d="M352.455 317.9H222.555C217.755 317.9 213.955 315.3 212.355 311.7L225.455 341C227.055 344.6 230.855 347.2 235.655 347.2H365.555L352.455 317.9Z" fill="url(#paint2_linear_55_211)"/>
<path d="M329.556 115.5C336.356 115.5 340.856 121.3 338.856 127.5L296.656 256.5C295.256 260.8 298.356 264.9 303.156 264.9H369.756C374.756 264.9 378.056 269.2 376.456 273.8L363.556 310.4C361.956 314.9 357.356 318 352.456 318H222.556C214.856 318 209.856 311.4 212.056 304.5L271.556 123.5C273.056 118.9 277.756 115.7 282.756 115.7H329.556V115.5Z" fill="#DDDDDD"/>
<path d="M363.5 310L376.756 339.5L376 341C373.444 344.92 371.424 346.24 367 347.2H366.682H365L352 318C352 318 356 317.5 359 315.5C362 313.5 363.5 310 363.5 310Z" fill="url(#paint3_linear_55_211)"/>
<path d="M343.256 133.9V133.8C343.256 133.5 343.256 133.1 343.256 132.8C343.256 132.7 343.256 132.6 343.256 132.5C343.256 132.1 343.156 131.8 343.056 131.4C343.056 131.3 342.956 131.1 342.956 131C342.956 130.9 342.956 130.8 342.856 130.8C342.756 130.6 342.656 130.3 342.556 130.1L338.256 120.5C338.356 120.7 338.456 121 338.556 121.2C338.556 121.3 338.556 121.4 338.656 121.4C338.656 121.6 338.756 121.7 338.756 121.9C338.856 122.2 338.856 122.6 338.956 123C338.956 123.1 338.956 123.2 338.956 123.3C338.956 123.6 338.956 124 338.956 124.3V124.4C338.956 124.8 338.856 125.2 338.856 125.5C338.856 125.6 338.856 125.7 338.756 125.8C338.656 126.2 338.556 126.6 338.456 127L296.256 256.1C296.156 256.4 296.056 256.7 296.056 256.9C296.056 257 296.056 257 296.056 257.1C296.056 257.4 295.956 257.6 295.956 257.9V258C295.956 258.2 295.956 258.5 295.956 258.7C295.956 258.8 295.956 258.8 295.956 258.9C295.956 259.2 296.056 259.4 296.056 259.6C296.056 259.6 296.056 259.6 296.056 259.7C296.156 260 296.256 260.3 296.356 260.6L300.656 270.2C300.556 269.9 300.456 269.6 300.356 269.3V269.2C300.256 269 300.256 268.7 300.256 268.5C300.256 268.4 300.256 268.4 300.256 268.3C300.256 268.1 300.256 267.8 300.256 267.6V267.5C300.256 267.2 300.256 267 300.356 266.7C300.356 266.6 300.356 266.6 300.356 266.5C300.456 266.2 300.456 265.9 300.556 265.7L342.856 136.6C342.956 136.2 343.056 135.8 343.156 135.4C343.156 135.3 343.156 135.2 343.256 135.1C343.256 134.7 343.256 134.3 343.256 133.9Z" fill="url(#paint4_linear_55_211)"/>
<path d="M380.855 281V280.9C380.855 280.6 380.855 280.4 380.855 280.1C380.855 280 380.855 280 380.855 279.9C380.855 279.6 380.755 279.4 380.755 279.1C380.755 279.1 380.755 279.1 380.755 279V278.9C380.655 278.6 380.555 278.3 380.455 278L376.155 268.4C376.255 268.7 376.355 269 376.455 269.3V269.4C376.555 269.7 376.555 269.9 376.555 270.2C376.555 270.3 376.555 270.3 376.555 270.4C376.555 270.7 376.555 270.9 376.555 271.2V271.3C376.555 271.6 376.455 271.9 376.455 272.2C376.455 272.3 376.455 272.3 376.455 272.4C376.355 272.7 376.355 273 376.255 273.3L363.355 309.9L368 319L380.555 282.9C380.655 282.6 380.755 282.3 380.755 282C380.755 281.9 380.755 281.9 380.755 281.8C380.855 281.5 380.855 281.2 380.855 281Z" fill="url(#paint5_linear_55_211)"/>
<path d="M352.155 317.5H222.055C217.255 317.5 213.455 314.9 211.855 311.3L216.155 320.9C217.755 324.5 221.555 327.1 226.355 327.1H356.455L352.155 317.5Z" fill="#0F1BC4"/>
<path d="M368 319L363.5 309.5C363.5 309.5 362.198 313.451 358.956 315.5C355 318 352 317.5 352 317.5L356.211 327.1C361 327 365.244 324.5 368 319Z" fill="#0F1BC4"/>
<path d="M329.256 115C336.056 115 340.556 120.8 338.556 127L296.356 256.1C294.956 260.4 298.056 264.5 302.856 264.5H369.556C374.556 264.5 377.856 268.8 376.256 273.4L363.356 310C361.756 314.5 357.156 317.6 352.256 317.6H222.056C214.356 317.6 209.256 311 211.556 304.1L271.056 122.9C272.556 118.3 277.256 115.1 282.256 115.1H329.256V115Z" fill="url(#paint6_linear_55_211)"/>
<defs>
<linearGradient id="paint0_linear_55_211" x1="339.942" y1="174.234" x2="302.782" y2="248.554" gradientUnits="userSpaceOnUse">
<stop offset="1.38523e-06" stop-color="#DCDDDD"/>
<stop offset="1" stop-color="#C9CACA"/>
</linearGradient>
<linearGradient id="paint1_linear_55_211" x1="382.501" y1="300.315" x2="337.568" y2="329.287" gradientUnits="userSpaceOnUse">
<stop offset="4.15568e-07" stop-color="#F7F8F8"/>
<stop offset="1" stop-color="#C9CACA"/>
</linearGradient>
<linearGradient id="paint2_linear_55_211" x1="368.32" y1="278.335" x2="323.419" y2="307.237" gradientUnits="userSpaceOnUse">
<stop offset="4.15568e-07" stop-color="#F7F8F8"/>
<stop offset="1" stop-color="#C9CACA"/>
</linearGradient>
<linearGradient id="paint3_linear_55_211" x1="390.657" y1="312.852" x2="345.614" y2="341.689" gradientUnits="userSpaceOnUse">
<stop offset="4.15568e-07" stop-color="#F7F8F8"/>
<stop offset="1" stop-color="#C9CACA"/>
</linearGradient>
<linearGradient id="paint4_linear_55_211" x1="361.84" y1="128.699" x2="278.207" y2="260.411" gradientUnits="userSpaceOnUse">
<stop offset="4.20895e-07" stop-color="#197DF7"/>
<stop offset="1" stop-color="#0F1BC4"/>
</linearGradient>
<linearGradient id="paint5_linear_55_211" x1="383.2" y1="252.293" x2="369.059" y2="307.644" gradientUnits="userSpaceOnUse">
<stop offset="4.20895e-07" stop-color="#197DF7"/>
<stop offset="1" stop-color="#0F1BC4"/>
</linearGradient>
<linearGradient id="paint6_linear_55_211" x1="338.891" y1="178.733" x2="266.974" y2="303.577" gradientUnits="userSpaceOnUse">
<stop offset="4.20895e-07" stop-color="#197DF7"/>
<stop offset="1" stop-color="#0F53C4"/>
</linearGradient>
</defs>
</svg>
